<svg xmlns="http://www.w3.org/2000/svg" viewBox="-359.591 2887.042 31.969 37.845">
  <defs>
    <style>
      .cls-1 {
        fill: #fff;
      }
    </style>
  </defs>
  <path id="Path_25" data-name="Path 25" class="cls-1" d="M7.476,14.442l22.7-7.895a.326.326,0,0,0,.2-.411L28.3.225a.326.326,0,0,0-.411-.2L.225,9.655a.326.326,0,0,0-.2.411l1.983,5.715a.227.227,0,0,1,.018.107V37.536a.32.32,0,0,0,.321.321H31.66a.32.32,0,0,0,.321-.321V15.067H7.566A.321.321,0,0,1,7.476,14.442ZM3.1,20.568V16.46a.32.32,0,0,1,.321-.321H7.548a.316.316,0,0,1,.232.536L3.654,20.8a.34.34,0,0,1-.232.089h0A.32.32,0,0,1,3.1,20.568Zm6.859-4.429h4.215a.316.316,0,0,1,.232.536L10.28,20.8a.34.34,0,0,1-.232.089H5.833a.316.316,0,0,1-.232-.536l4.126-4.126A.376.376,0,0,1,9.959,16.139Zm6.644,0H20.89a.316.316,0,0,1,.232.536L17,20.8a.34.34,0,0,1-.232.089H12.477a.316.316,0,0,1-.232-.536l4.126-4.126A.376.376,0,0,1,16.6,16.139Zm6.7,0h4.126a.316.316,0,0,1,.232.536L23.533,20.8a.34.34,0,0,1-.232.089H19.175a.316.316,0,0,1-.232-.536l4.126-4.126A.421.421,0,0,1,23.3,16.139Zm6.555,0h.732a.32.32,0,0,1,.321.321v4.126a.32.32,0,0,1-.321.321H25.73a.316.316,0,0,1-.232-.536l4.126-4.126A.288.288,0,0,1,29.856,16.139ZM15.764,10.423l-4.054,1.411a.322.322,0,0,1-.393-.447l2.536-5.251a.314.314,0,0,1,.179-.161l4.054-1.411a.322.322,0,0,1,.393.447l-2.536,5.251A.391.391,0,0,1,15.764,10.423Zm4.608-6.644,3.894-1.357a.322.322,0,0,1,.393.447L22.122,8.119a.314.314,0,0,1-.179.161L18.05,9.638a.322.322,0,0,1-.393-.447L20.193,3.94A.319.319,0,0,1,20.372,3.779ZM9.423,12.638,5.44,14.031a.322.322,0,0,1-.393-.447L7.584,8.334a.314.314,0,0,1,.179-.161L11.745,6.78a.322.322,0,0,1,.393.447L9.6,12.477A.391.391,0,0,1,9.423,12.638ZM28.8,5.887l-4.59,1.59a.322.322,0,0,1-.393-.447L26.355,1.8a.314.314,0,0,1,.179-.161l.7-.25a.341.341,0,0,1,.411.2L29,5.476A.333.333,0,0,1,28.8,5.887ZM5.869,9.405,3.333,14.656a.314.314,0,0,1-.179.161h0a.341.341,0,0,1-.411-.2L1.386,10.727a.341.341,0,0,1,.2-.411L5.476,8.959A.324.324,0,0,1,5.869,9.405ZM30.588,36.786H3.422a.32.32,0,0,1-.321-.321V22.283a.32.32,0,0,1,.321-.321H30.588a.32.32,0,0,1,.321.321V36.465A.32.32,0,0,1,30.588,36.786Z" transform="translate(-359.604 2887.03)"/>
</svg>
